<svg id="Layer_1" data-name="Layer 1" xmlns="http://www.w3.org/2000/svg" viewBox="0 0 1022.57 219.3"><defs><style>.cls-1{fill:#fff;}</style></defs><title>Alfinder_Logo</title><path class="cls-1" d="M1022.57,91.68a25.82,25.82,0,1,1-25.82-25.8A26,26,0,0,1,1022.57,91.68ZM979.86,204.51q-13.38,0-19.47-4.83t-6.09-17.41V70l-.07,0v0H897.8v5.68h.09v0q9.68,0,13.51,5.63t3.84,18.21v85.54q0,7.55-1.65,11.78a10.37,10.37,0,0,1-5.43,6q-3.78,1.72-10.27,1.72v5.7h83.05v-5.68h-1.08Zm-401.53-7.79q-1.73-4.23-1.72-11.78V112q0-13.77-2-22a31.21,31.21,0,0,0-6.48-13.38,28.24,28.24,0,0,0-11.59-7.81q-7.09-2.64-18.21-2.65-32,0-44.32,24.87V70.27c-.1,0-.22,0-.32.06V70H437.27v5.68h.33V76q9.67,0,13.51,5.62T455,99.81v85.54q0,7.54-1.65,11.79a10.4,10.4,0,0,1-5.43,6,23.71,23.71,0,0,1-9,1.67h-1.34v5.68h.05v.06l1.83-.06h67.72l1.56.06v-5.69h-.06v0h-.45a17.81,17.81,0,0,1-8.09-1.67,10.17,10.17,0,0,1-4.64-6A37.79,37.79,0,0,1,494,185.35V106.27a34.52,34.52,0,0,1,3.4-12.76,28.46,28.46,0,0,1,9.74-11.33,24,24,0,0,1,13.57-4.1q9.54,0,13.17,5.69a20.09,20.09,0,0,1,2.19,5.2,50.09,50.09,0,0,1,1.32,11.73v84.35A39.53,39.53,0,0,1,536,196.83a10.8,10.8,0,0,1-3,4.9,8.06,8.06,0,0,1-1.38,1q-3.18,1.73-8.74,1.72v.1h-.14v5.7h71.13v-.12H594v-5.7q-6.48,0-10.19-1.72A10.6,10.6,0,0,1,578.33,196.72Zm262.42-4.92a29.76,29.76,0,0,1-17.14-5.49q-8-5.51-13.05-17.35t-5-29.86l-.13-17.87q1.46-25.31,7.88-37.28t16.09-12q9.52,0,14.23,14l.09.28a37,37,0,0,1,.76,19.7c-2,8.72-7.91,14.76-16.86,14.76h-.76v5.67l25.67,0a25.18,25.18,0,0,0,22.43-36.57Q863,66.27,831.09,66.27q-19.61,0-34.56,8.48T773.09,100.1q-8.48,16.89-8.47,41.52,0,24.09,7.88,40.32t22,24.16q14.12,8,32.78,8a51.86,51.86,0,0,0,25.23-6,56.09,56.09,0,0,0,18.27-15.62,67.62,67.62,0,0,0,10.66-20.73l-4.77-1.58Q863.14,191.8,840.75,191.8Zm-104,6.82q-3.78-5.62-3.78-18.2V6.58h0V.91H677.19l-.66-.05V6.55h0v0h.33c6.17.07,10.55,1.92,13.11,5.6s3.91,9.82,3.91,18.21V178.3a30.67,30.67,0,0,1-4.44,12.78,24.64,24.64,0,0,1-8.67,8.4,22,22,0,0,1-11,2.92q-26,0-25.56-62.37c-.06-14.49.06-42,7-59,2.27-5.53,6.51-9.12,12.5-9.12h.7V66.64l-3.48-.2c-10.65.41-20.22,3-28.61,8q-13.7,8.22-21.45,24.63t-7.61,40.25q-.15,25.17,6.81,41.91T629.59,206q12.51,8,29.07,8,26.08,0,35.22-24.5v15h0v5.73h56.35v-.32h.11v-5.69Q740.48,204.25,736.72,198.62Zm-326.56-1.79q-1.86-4.23-1.86-11.78V70H318q0-19,1.71-29.31c1.15-6.93,2.14-12.14,5.7-17.54a2.33,2.33,0,0,1,.17-.26c7.35-11,16.95-17.11,26.54-17.11h.15V.07a61.18,61.18,0,0,0-6.24,0h-.34a112,112,0,0,0-21.14,2.77c-10.06,2.39-17.9,7.68-24.17,13.5Q279,36.92,278.94,70H259v.28h0v5.43h20V185.05q0,7.55-1.85,11.78a11,11,0,0,1-5.89,6c-2.7,1.15-17.28,1.72-22.06,1.72q-6.48,0-10.25-1.72a10.31,10.31,0,0,1-5.43-6q-1.66-4.23-1.66-11.78V.72l-.09,0v0H175V6.4h.34v.15q9.54,0,13.44,5.63t3.91,18.21V185.05q0,7.55-1.72,11.78a10.64,10.64,0,0,1-5.43,6,23.64,23.64,0,0,1-9.44,1.83c-1.21,0-6.08-.09-6.08-.09-4.56,0-5.58-.55-7.16-4.36L87.53,20.33H77l-15,41.59,55.46,142.56-22.79,0v5.71l245.18,0v-5.68h-.06v0q-10.86,0-16.29-4.23T318,185.05V75.71h32.3q10.47,0,14.7,5.62t4.24,18.21v85.51q0,7.55-1.65,11.78a10.41,10.41,0,0,1-5.37,6q-3.71,1.72-10.33,1.72v0h-.13v5.68h75.61v-5.7q-7.15,0-11.25-1.72A10.89,10.89,0,0,1,410.16,196.83Zm-25-141.58A26,26,0,1,0,359.32,29.1,26,26,0,0,0,385.14,55.25ZM34.42,150A34.45,34.45,0,0,0,0,184.44c0,19.22,15.44,34.86,34.42,34.86s34.42-15.64,34.42-34.86A34.45,34.45,0,0,0,34.42,150Z"/></svg>