<svg id="Layer_1" data-name="Layer 1" xmlns="http://www.w3.org/2000/svg" viewBox="0 0 1024 1024"><defs><style>.cls-1{fill:#3c2e64;}</style></defs><title>Alfinder_Logo_TM</title><path class="cls-1" d="M385,844.58C385,943.52,305.55,1024,207.84,1024S30.73,943.52,30.73,844.58c0-97.65,79.45-177.06,177.11-177.06S385,746.93,385,844.58Zm508,92.26c-15.2-1.13-20-5.63-26.89-22.1L481.23,0H426.86L349.29,214l270.94,697.7c1.87,4.62,6.7,17.6,9,25.17h-112v40.51h428.3V936.84Zm8.76-79h-19v-5.89H927v5.89H908.09v50.56h-6.37Zm37.52-5.89h6.45l20.57,30.8,20.56-30.8h6.45v56.45H986.9V862.63l-20.56,30.24H966l-20.56-30.15v45.64h-6.21Z"/></svg>