<svg id="Layer_1" data-name="Layer 1" xmlns="http://www.w3.org/2000/svg" viewBox="0 0 1024 1024"><defs><style>.cls-1{fill:#3c2e64;}</style></defs><title>Alfinder_Logo_TM</title><path class="cls-1" d="M408.86,844.58c0,98.94-79.45,179.42-177.16,179.42S54.59,943.52,54.59,844.58c0-97.65,79.45-177.06,177.11-177.06S408.86,746.93,408.86,844.58Zm508,92.26c-15.2-1.13-20-5.63-26.9-22.1L505.09,0H450.72L373.15,214l270.94,697.7c1.86,4.62,6.69,17.6,9,25.17h-112v40.51H969.41V936.84Zm-2.43-53.75H903v-3.54h26.56v3.54H918.21v30.33h-3.82Zm22.51-3.54h3.87L953.11,898l12.34-18.49h3.87v33.87H965.5V886l-12.34,18.14H953L940.63,886v27.38H936.9Z"/></svg>